<svg width="914" height="400" fill="none" xmlns="http://www.w3.org/2000/svg">
  <path fill="#fff" d="M0 0h914v400H0z"/>
  <path d="M455.63 205.4V193c0-1.16-.88-2.16-2.04-2.16h-3.2c-1 0-1.8.8-1.8 1.8 0 1.04.8 1.8 1.8 1.8h.92V202c0 1.84-.64 3.6-3.56 3.6-2.96 0-3.6-1.76-3.6-3.6v-9c0-1.16-.88-2.16-2.04-2.16h-3.2c-1 0-1.8.8-1.8 1.8 0 1.04.8 1.8 1.8 1.8h.92V202c0 3.92 1.36 7.48 7.16 7.48 2.24 0 3.72-1.24 4.32-2.4.08 1.12.96 1.92 2.16 1.92h3.16c1 0 1.8-.8 1.8-1.8s-.8-1.8-1.8-1.8h-1zm13.735 4.12c3.28 0 5.48-1.44 6.4-2.28.48-.44.68-.96.68-1.48 0-1.08-.84-1.92-1.92-1.92-.36 0-.76.08-1.2.4-.92.68-2.12 1.6-3.96 1.6-2.8 0-4.32-2.12-4.32-5.96 0-3.76 1.52-5.92 4.32-5.92 2 0 3.04 1.04 3.56 1.56.36.36.84.68 1.48.68 1.08 0 1.92-.84 1.92-1.92 0-.48-.12-.8-.44-1.24-.68-.92-2.84-2.76-6.52-2.76-5.4 0-8.68 3.08-8.68 9.6s3.28 9.64 8.68 9.64z" fill="#333"/>
</svg>
